<mxfile host="app.diagrams.net" agent="Mozilla/5.0 (Windows NT 10.0; Win64; x64) AppleWebKit/537.36 (KHTML, like Gecko) Chrome/130.0.0.0 Safari/537.36" version="24.8.3">
  <diagram name="Page-1" id="ydoP1L0cwk2G8NlT6kMX">
    <mxGraphModel dx="1687" dy="868" grid="1" gridSize="10" guides="1" tooltips="1" connect="1" arrows="1" fold="1" page="1" pageScale="1" pageWidth="1600" pageHeight="900" math="0" shadow="0">
      <root>
        <mxCell id="0" />
        <mxCell id="1" parent="0" />
        <mxCell id="2aqRiVBDagBq31txkChp-8" value="" style="edgeStyle=orthogonalEdgeStyle;rounded=0;orthogonalLoop=1;jettySize=auto;html=1;" edge="1" parent="1" source="2aqRiVBDagBq31txkChp-1" target="2aqRiVBDagBq31txkChp-7">
          <mxGeometry relative="1" as="geometry" />
        </mxCell>
        <mxCell id="2aqRiVBDagBq31txkChp-23" value="" style="edgeStyle=orthogonalEdgeStyle;rounded=0;orthogonalLoop=1;jettySize=auto;html=1;" edge="1" parent="1" source="2aqRiVBDagBq31txkChp-1" target="2aqRiVBDagBq31txkChp-22">
          <mxGeometry relative="1" as="geometry" />
        </mxCell>
        <mxCell id="2aqRiVBDagBq31txkChp-1" value="main.py" style="rounded=0;whiteSpace=wrap;html=1;" vertex="1" parent="1">
          <mxGeometry x="40" y="330" width="120" height="60" as="geometry" />
        </mxCell>
        <mxCell id="2aqRiVBDagBq31txkChp-3" value="ETL" style="swimlane;childLayout=stackLayout;resizeParent=1;resizeParentMax=0;startSize=20;html=1;" vertex="1" parent="1">
          <mxGeometry x="360" y="30" width="920" height="760" as="geometry" />
        </mxCell>
        <mxCell id="2aqRiVBDagBq31txkChp-4" value="Data Extraction" style="swimlane;startSize=20;html=1;" vertex="1" parent="2aqRiVBDagBq31txkChp-3">
          <mxGeometry y="20" width="350" height="740" as="geometry" />
        </mxCell>
        <mxCell id="2aqRiVBDagBq31txkChp-12" value="" style="edgeStyle=orthogonalEdgeStyle;rounded=0;orthogonalLoop=1;jettySize=auto;html=1;" edge="1" parent="2aqRiVBDagBq31txkChp-4" source="2aqRiVBDagBq31txkChp-9" target="2aqRiVBDagBq31txkChp-11">
          <mxGeometry relative="1" as="geometry" />
        </mxCell>
        <mxCell id="2aqRiVBDagBq31txkChp-14" value="" style="edgeStyle=orthogonalEdgeStyle;rounded=0;orthogonalLoop=1;jettySize=auto;html=1;" edge="1" parent="2aqRiVBDagBq31txkChp-4" source="2aqRiVBDagBq31txkChp-9" target="2aqRiVBDagBq31txkChp-13">
          <mxGeometry relative="1" as="geometry" />
        </mxCell>
        <mxCell id="2aqRiVBDagBq31txkChp-9" value="&#xa;&lt;div style=&quot;color: #bfbdb6;background-color: #0b0e14;font-family: Consolas, &#39;Courier New&#39;, monospace;font-weight: normal;font-size: 14px;line-height: 19px;white-space: pre;&quot;&gt;&lt;div&gt;&lt;span style=&quot;color: #ffb454;&quot;&gt;extract_save_notebooks&lt;/span&gt;&lt;/div&gt;&lt;/div&gt;&#xa;&#xa;" style="whiteSpace=wrap;html=1;rounded=0;" vertex="1" parent="2aqRiVBDagBq31txkChp-4">
          <mxGeometry x="40" y="170" width="120" height="60" as="geometry" />
        </mxCell>
        <mxCell id="2aqRiVBDagBq31txkChp-11" value="&lt;br&gt;&lt;div style=&quot;color: #bfbdb6;background-color: #0b0e14;font-family: Consolas, &#39;Courier New&#39;, monospace;font-weight: normal;font-size: 14px;line-height: 19px;white-space: pre;&quot;&gt;&lt;div&gt;&lt;span style=&quot;color: #ffb454;&quot;&gt;extract_notebooks&lt;/span&gt;&lt;/div&gt;&lt;/div&gt;downloads information&lt;div&gt;&lt;br&gt;&lt;/div&gt;" style="rounded=0;whiteSpace=wrap;html=1;" vertex="1" parent="2aqRiVBDagBq31txkChp-4">
          <mxGeometry x="200" y="170" width="120" height="60" as="geometry" />
        </mxCell>
        <mxCell id="2aqRiVBDagBq31txkChp-13" value="&#xa;&lt;div style=&quot;color: #bfbdb6;background-color: #0b0e14;font-family: Consolas, &#39;Courier New&#39;, monospace;font-weight: normal;font-size: 14px;line-height: 19px;white-space: pre;&quot;&gt;&lt;div&gt;&lt;span style=&quot;color: #ffb454;&quot;&gt;save_into_database&lt;/span&gt;&lt;/div&gt;&lt;/div&gt;&#xa;&#xa;" style="whiteSpace=wrap;html=1;rounded=0;" vertex="1" parent="2aqRiVBDagBq31txkChp-4">
          <mxGeometry x="40" y="30" width="120" height="60" as="geometry" />
        </mxCell>
        <mxCell id="2aqRiVBDagBq31txkChp-27" value="" style="edgeStyle=orthogonalEdgeStyle;rounded=0;orthogonalLoop=1;jettySize=auto;html=1;" edge="1" parent="2aqRiVBDagBq31txkChp-4" source="2aqRiVBDagBq31txkChp-24" target="2aqRiVBDagBq31txkChp-26">
          <mxGeometry relative="1" as="geometry" />
        </mxCell>
        <mxCell id="2aqRiVBDagBq31txkChp-24" value="&#xa;&lt;div style=&quot;color: #bfbdb6;background-color: #0b0e14;font-family: Consolas, &#39;Courier New&#39;, monospace;font-weight: normal;font-size: 14px;line-height: 19px;white-space: pre;&quot;&gt;&lt;div&gt;&lt;span style=&quot;color: #ffb454;&quot;&gt;get_all_readme&lt;/span&gt;&lt;/div&gt;&lt;/div&gt;&#xa;&#xa;" style="whiteSpace=wrap;html=1;rounded=0;" vertex="1" parent="2aqRiVBDagBq31txkChp-4">
          <mxGeometry x="30" y="280" width="120" height="60" as="geometry" />
        </mxCell>
        <mxCell id="2aqRiVBDagBq31txkChp-26" value="&#xa;&lt;div style=&quot;color: #bfbdb6;background-color: #0b0e14;font-family: Consolas, &#39;Courier New&#39;, monospace;font-weight: normal;font-size: 14px;line-height: 19px;white-space: pre;&quot;&gt;&lt;div&gt;&lt;span style=&quot;color: #ffb454;&quot;&gt;save_readme&lt;/span&gt;&lt;/div&gt;&lt;/div&gt;&#xa;&#xa;" style="whiteSpace=wrap;html=1;rounded=0;" vertex="1" parent="2aqRiVBDagBq31txkChp-4">
          <mxGeometry x="201" y="280" width="120" height="60" as="geometry" />
        </mxCell>
        <mxCell id="2aqRiVBDagBq31txkChp-5" value="Data Transformation" style="swimlane;startSize=20;html=1;" vertex="1" parent="2aqRiVBDagBq31txkChp-3">
          <mxGeometry x="350" y="20" width="300" height="740" as="geometry" />
        </mxCell>
        <mxCell id="2aqRiVBDagBq31txkChp-28" value="&#xa;&lt;div style=&quot;color: #bfbdb6;background-color: #0b0e14;font-family: Consolas, &#39;Courier New&#39;, monospace;font-weight: normal;font-size: 14px;line-height: 19px;white-space: pre;&quot;&gt;&lt;div&gt;&lt;span style=&quot;color: #ffb454;&quot;&gt;update_raw_readme&lt;/span&gt;&lt;/div&gt;&lt;/div&gt;&#xa;&#xa;" style="whiteSpace=wrap;html=1;rounded=0;" vertex="1" parent="2aqRiVBDagBq31txkChp-5">
          <mxGeometry x="337" y="280" width="120" height="60" as="geometry" />
        </mxCell>
        <mxCell id="2aqRiVBDagBq31txkChp-6" value="Database" style="swimlane;startSize=20;html=1;" vertex="1" parent="2aqRiVBDagBq31txkChp-3">
          <mxGeometry x="650" y="20" width="270" height="740" as="geometry" />
        </mxCell>
        <mxCell id="2aqRiVBDagBq31txkChp-15" value="&#xa;&lt;div style=&quot;color: #bfbdb6;background-color: #0b0e14;font-family: Consolas, &#39;Courier New&#39;, monospace;font-weight: normal;font-size: 14px;line-height: 19px;white-space: pre;&quot;&gt;&lt;div&gt;&lt;span style=&quot;color: #ffb454;&quot;&gt;update_insert_readme&lt;/span&gt;&lt;/div&gt;&lt;/div&gt;&#xa;&#xa;" style="rounded=0;whiteSpace=wrap;html=1;" vertex="1" parent="2aqRiVBDagBq31txkChp-6">
          <mxGeometry x="50" y="30" width="120" height="60" as="geometry" />
        </mxCell>
        <mxCell id="2aqRiVBDagBq31txkChp-16" value="" style="edgeStyle=orthogonalEdgeStyle;rounded=0;orthogonalLoop=1;jettySize=auto;html=1;" edge="1" parent="2aqRiVBDagBq31txkChp-3" source="2aqRiVBDagBq31txkChp-13" target="2aqRiVBDagBq31txkChp-15">
          <mxGeometry relative="1" as="geometry" />
        </mxCell>
        <mxCell id="2aqRiVBDagBq31txkChp-29" value="" style="edgeStyle=orthogonalEdgeStyle;rounded=0;orthogonalLoop=1;jettySize=auto;html=1;" edge="1" parent="2aqRiVBDagBq31txkChp-3" source="2aqRiVBDagBq31txkChp-26" target="2aqRiVBDagBq31txkChp-28">
          <mxGeometry relative="1" as="geometry" />
        </mxCell>
        <mxCell id="2aqRiVBDagBq31txkChp-10" value="" style="edgeStyle=orthogonalEdgeStyle;rounded=0;orthogonalLoop=1;jettySize=auto;html=1;" edge="1" parent="1" source="2aqRiVBDagBq31txkChp-7" target="2aqRiVBDagBq31txkChp-9">
          <mxGeometry relative="1" as="geometry" />
        </mxCell>
        <mxCell id="2aqRiVBDagBq31txkChp-7" value="&#xa;&lt;div style=&quot;color: #bfbdb6;background-color: #0b0e14;font-family: Consolas, &#39;Courier New&#39;, monospace;font-weight: normal;font-size: 14px;line-height: 19px;white-space: pre;&quot;&gt;&lt;div&gt;&lt;span style=&quot;color: #ffb454;&quot;&gt;extract_notebooks&lt;/span&gt;&lt;/div&gt;&lt;/div&gt;&#xa;&#xa;" style="whiteSpace=wrap;html=1;rounded=0;" vertex="1" parent="1">
          <mxGeometry x="40" y="190" width="120" height="60" as="geometry" />
        </mxCell>
        <mxCell id="2aqRiVBDagBq31txkChp-17" value="" style="html=1;verticalLabelPosition=bottom;align=center;labelBackgroundColor=#ffffff;verticalAlign=top;strokeWidth=2;strokeColor=#0080F0;shadow=0;dashed=0;shape=mxgraph.ios7.icons.data;" vertex="1" parent="1">
          <mxGeometry x="1343" y="270" width="120" height="170" as="geometry" />
        </mxCell>
        <mxCell id="2aqRiVBDagBq31txkChp-19" value="Metadata_Premap" style="edgeStyle=orthogonalEdgeStyle;rounded=0;orthogonalLoop=1;jettySize=auto;html=1;exitX=1;exitY=0.5;exitDx=0;exitDy=0;entryX=0.417;entryY=0.006;entryDx=0;entryDy=0;entryPerimeter=0;" edge="1" parent="1" source="2aqRiVBDagBq31txkChp-15" target="2aqRiVBDagBq31txkChp-17">
          <mxGeometry relative="1" as="geometry" />
        </mxCell>
        <mxCell id="2aqRiVBDagBq31txkChp-25" value="" style="edgeStyle=orthogonalEdgeStyle;rounded=0;orthogonalLoop=1;jettySize=auto;html=1;" edge="1" parent="1" source="2aqRiVBDagBq31txkChp-22" target="2aqRiVBDagBq31txkChp-24">
          <mxGeometry relative="1" as="geometry" />
        </mxCell>
        <mxCell id="2aqRiVBDagBq31txkChp-22" value="&#xa;&lt;div style=&quot;color: #bfbdb6;background-color: #0b0e14;font-family: Consolas, &#39;Courier New&#39;, monospace;font-weight: normal;font-size: 14px;line-height: 19px;white-space: pre;&quot;&gt;&lt;div&gt;&lt;span style=&quot;color: #ffb454;&quot;&gt;extract_readme&lt;/span&gt;&lt;/div&gt;&lt;/div&gt;&#xa;&#xa;" style="rounded=0;whiteSpace=wrap;html=1;" vertex="1" parent="1">
          <mxGeometry x="190" y="330" width="120" height="60" as="geometry" />
        </mxCell>
        <mxCell id="2aqRiVBDagBq31txkChp-30" value="Metadata_Premap" style="edgeStyle=orthogonalEdgeStyle;rounded=0;orthogonalLoop=1;jettySize=auto;html=1;exitX=1;exitY=0.5;exitDx=0;exitDy=0;entryX=-0.005;entryY=0.524;entryDx=0;entryDy=0;entryPerimeter=0;" edge="1" parent="1" source="2aqRiVBDagBq31txkChp-28" target="2aqRiVBDagBq31txkChp-17">
          <mxGeometry relative="1" as="geometry" />
        </mxCell>
      </root>
    </mxGraphModel>
  </diagram>
</mxfile>
